<?xml version="1.0" encoding="UTF-8" standalone="no"?>
<svg
   width="90.002998"
   height="90"
   viewBox="0 0 90.002998 90"
   fill="none"
   version="1.1"
   id="svg83"
   xmlns="http://www.w3.org/2000/svg"
   xmlns:svg="http://www.w3.org/2000/svg">
  <path
     d="m 43.9275,23.1692 c 0.3568,-0.0175 0.7144,-0.0263 1.0725,-0.0263 0.3581,0 0.7157,0.0088 1.0725,0.0263 L 47.208,0.0542021 C 46.4734,0.0181103 45.7371,0 45,0 44.2629,0 43.5267,0.0181103 42.792,0.0542021 Z"
     fill="url(#paint1_linear_1123_1429)"
     id="path2"
     style="fill:url(#paint1_linear_1123_1429)" />
  <path
     d="m 39.6891,23.7979 c 0.694,-0.1738 1.3961,-0.3135 2.1038,-0.4185 L 38.3971,0.487057 C 36.9402,0.703178 35.4947,0.990703 34.0659,1.34859 Z"
     fill="url(#paint2_linear_1123_1429)"
     id="path3"
     style="fill:url(#paint2_linear_1123_1429)" />
  <path
     d="m 48.2071,23.3794 c 0.7077,0.105 1.4098,0.2447 2.1038,0.4185 L 55.9341,1.34859 C 54.5053,0.990706 53.0599,0.70318 51.6029,0.487059 Z"
     fill="url(#paint3_linear_1123_1429)"
     id="path4"
     style="fill:url(#paint3_linear_1123_1429)" />
  <path
     d="m 36.6356,24.8066 c 0.3308,-0.137 0.6646,-0.2657 1.001,-0.3861 L 29.8399,2.63052 C 29.1474,2.87833 28.4603,3.14334 27.7792,3.42542 27.0982,3.7075 26.425,4.00598 25.76,4.32047 l 9.8949,20.92093 c 0.3229,-0.1528 0.6499,-0.2977 0.9807,-0.4348 z"
     fill="url(#paint4_linear_1123_1429)"
     id="path5"
     style="fill:url(#paint4_linear_1123_1429)" />
  <path
     d="m 52.3634,24.4205 c 0.3364,0.1204 0.6702,0.2491 1.001,0.3861 0.3308,0.1371 0.6578,0.282 0.9807,0.4348 L 64.24,4.32048 C 63.575,4.00598 62.9018,3.70751 62.2208,3.42542 61.5398,3.14334 60.8526,2.87833 60.1601,2.63052 Z"
     fill="url(#paint5_linear_1123_1429)"
     id="path6"
     style="fill:url(#paint5_linear_1123_1429)" />
  <path
     d="m 31.9797,27.4442 c 0.5746,-0.4262 1.1699,-0.8239 1.7835,-1.1917 L 21.8654,6.40221 C 20.602,7.15944 19.3766,7.97824 18.1935,8.85565 Z"
     fill="url(#paint6_linear_1123_1429)"
     id="path7"
     style="fill:url(#paint6_linear_1123_1429)" />
  <path
     d="m 56.2368,26.2525 c 0.6136,0.3678 1.2089,0.7655 1.7835,1.1917 L 71.8065,8.85566 C 70.6234,7.97825 69.398,7.15945 68.1346,6.40222 Z"
     fill="url(#paint7_linear_1123_1429)"
     id="path8"
     style="fill:url(#paint7_linear_1123_1429)" />
  <path
     d="m 29.5447,29.5447 c 0.2531,-0.2532 0.5122,-0.4999 0.7769,-0.7398 L 14.7798,11.6572 c -0.545,0.494 -1.0784,1.0018 -1.5996,1.523 -0.5212,0.5212 -1.029,1.0546 -1.523,1.5996 l 17.1477,15.5418 c 0.2399,-0.2647 0.4866,-0.5238 0.7398,-0.7769 z"
     fill="url(#paint8_linear_1123_1429)"
     id="path9"
     style="fill:url(#paint8_linear_1123_1429)" />
  <path
     d="m 59.6784,28.8049 c 0.2647,0.2399 0.5238,0.4866 0.7769,0.7398 0.2532,0.2531 0.4999,0.5122 0.7398,0.777 L 78.3428,14.7798 c -0.494,-0.545 -1.0018,-1.0784 -1.523,-1.5996 -0.5212,-0.5212 -1.0546,-1.029 -1.5996,-1.523 z"
     fill="url(#paint9_linear_1123_1429)"
     id="path10"
     style="fill:url(#paint9_linear_1123_1429)" />
  <path
     d="m 26.2525,33.7632 c 0.3678,-0.6136 0.7655,-1.2089 1.1917,-1.7835 L 8.85566,18.1935 C 7.97825,19.3766 7.15945,20.602 6.40222,21.8654 Z"
     fill="url(#paint10_linear_1123_1429)"
     id="path11"
     style="fill:url(#paint10_linear_1123_1429)" />
  <path
     d="m 62.5558,31.9797 c 0.4262,0.5746 0.8239,1.1699 1.1917,1.7835 L 83.5978,21.8654 c -0.7572,-1.2634 -1.576,-2.4888 -2.4535,-3.6719 z"
     fill="url(#paint11_linear_1123_1429)"
     id="path12"
     style="fill:url(#paint11_linear_1123_1429)" />
  <path
     d="m 24.8066,36.6356 c 0.1371,-0.3308 0.282,-0.6578 0.4348,-0.9807 L 4.32048,25.76 c -0.3145,0.665 -0.61298,1.3382 -0.89506,2.0192 -0.28208,0.681 -0.54709,1.3682 -0.7949,2.0607 l 21.78998,7.7967 c 0.1204,-0.3364 0.2491,-0.6702 0.3861,-1.001 z"
     fill="url(#paint12_linear_1123_1429)"
     id="path13"
     style="fill:url(#paint12_linear_1123_1429)" />
  <path
     d="m 64.7586,35.6549 c 0.1528,0.3229 0.2978,0.6499 0.4348,0.9807 0.137,0.3308 0.2657,0.6646 0.3861,1.001 L 87.3695,29.84 C 87.1217,29.1474 86.8567,28.4603 86.5746,27.7793 86.2925,27.0982 85.994,26.425 85.6795,25.76 Z"
     fill="url(#paint13_linear_1123_1429)"
     id="path14"
     style="fill:url(#paint13_linear_1123_1429)" />
  <path
     d="m 23.3794,41.7929 c 0.105,-0.7077 0.2447,-1.4098 0.4185,-2.1038 L 1.34859,34.0659 c -0.357884,1.4288 -0.64541,2.8742 -0.861532,4.3312 z"
     fill="url(#paint14_linear_1123_1429)"
     id="path15"
     style="fill:url(#paint14_linear_1123_1429)" />
  <path
     d="m 66.2021,39.6891 c 0.1738,0.694 0.3135,1.3961 0.4185,2.1038 l 22.8923,-3.3958 c -0.2161,-1.4569 -0.5036,-2.9024 -0.8615,-4.3312 z"
     fill="url(#paint15_linear_1123_1429)"
     id="path16"
     style="fill:url(#paint15_linear_1123_1429)" />
  <path
     d="m 23.1429,45 c 0,-0.3581 0.0088,-0.7157 0.0263,-1.0725 L 0.0542021,42.792 C 0.0181103,43.5267 0,44.2629 0,45 c -8.848505e-7,5.9095 1.16396,11.7611 3.42542,17.2207 2.26146,5.4597 5.57614,10.4205 9.75478,14.5991 4.1786,4.1786 9.1394,7.4933 14.599,9.7548 C 33.2389,88.836 39.0905,90 45,90 c 5.9095,0 11.7611,-1.164 17.2208,-3.4254 5.4596,-2.2615 10.4204,-5.5762 14.599,-9.7548 4.1786,-4.1786 7.4933,-9.1394 9.7548,-14.5991 C 88.836,56.7611 90,50.9095 90,45 90,44.2629 89.9819,43.5267 89.9458,42.792 l -23.115,1.1355 c 0.0175,0.3569 0.0263,0.7145 0.0263,1.0725 0,2.8703 -0.5653,5.7125 -1.6637,8.3644 -1.0985,2.6518 -2.7084,5.0613 -4.7381,7.0909 -2.0296,2.0297 -4.4391,3.6396 -7.0909,4.7381 -2.6519,1.0984 -5.4941,1.6637 -8.3644,1.6637 -2.8703,0 -5.7125,-0.5653 -8.3644,-1.6637 C 33.9838,64.0949 31.5743,62.485 29.5447,60.4553 27.515,58.4257 25.9051,56.0162 24.8066,53.3644 23.7082,50.7125 23.1429,47.8703 23.1429,45 Z"
     fill="url(#paint16_linear_1123_1429)"
     id="path17"
     style="fill:url(#paint16_linear_1123_1429)" />
  <g
     opacity="0.3"
     id="g33">
    <path
       d="m 45.0031,23.1418 c -0.3581,0 -0.7157,0.0088 -1.0725,0.0264 l -0.4312,-8.7781 c 0.997,-0.43 2.0191,-0.8128 3.0637,-1.1454 l -0.4875,9.9235 c -0.3569,-0.0176 -0.7145,-0.0264 -1.0725,-0.0264 z"
       fill="#000000"
       id="path18" />
    <path
       d="m 49.8412,12.3831 -1.631,10.9953 c 0.7077,0.105 1.4098,0.2446 2.1037,0.4185 l 2.9929,-11.9481 c -1.1743,0.1182 -2.3305,0.2974 -3.4656,0.5343 z"
       fill="#000000"
       id="path19" />
    <path
       d="m 56.9246,11.6807 -4.5581,12.7388 c 0.3364,0.1204 0.6702,0.2491 1.0009,0.3861 0.3308,0.137 0.6579,0.282 0.9808,0.4348 l 6.3031,-13.3268 c -1.2231,-0.1452 -2.4666,-0.224 -3.7267,-0.2329 z"
       fill="#000000"
       id="path20" />
    <path
       d="m 64.4312,12.5852 -8.1913,13.6663 c 0.6136,0.3678 1.2088,0.7655 1.7835,1.1917 l 10.1754,-13.72 c -1.2237,-0.4507 -2.4812,-0.8317 -3.7676,-1.138 z"
       fill="#000000"
       id="path21" />
    <path
       d="m 71.8836,15.3409 -12.2022,13.463 c 0.2648,0.2399 0.5238,0.4866 0.777,0.7398 0.2532,0.2531 0.4998,0.5122 0.7398,0.7769 l 14.2141,-12.883 c -1.1285,-0.7683 -2.3067,-1.4692 -3.5287,-2.0967 z"
       fill="#000000"
       id="path22" />
    <path
       d="M 78.7113,19.9993 62.5589,31.9787 c 0.4262,0.5746 0.8239,1.1698 1.1917,1.7835 L 81.7078,22.999 c -0.9345,-1.062 -1.9355,-2.0641 -2.9965,-2.9997 z"
       fill="#000000"
       id="path23" />
    <path
       d="m 84.3316,26.398 -19.5699,9.2558 c 0.1528,0.323 0.2977,0.65 0.4347,0.9808 0.1371,0.3308 0.2658,0.6646 0.3862,1.001 L 86.517,30.1451 c -0.6483,-1.2997 -1.3791,-2.551 -2.1854,-3.7471 z"
       fill="#000000"
       id="path24" />
    <path
       d="m 88.2062,34.1772 -22.001,5.5109 c 0.1738,0.694 0.3135,1.3961 0.4185,2.1038 l 22.73,-3.3717 c -0.2905,-1.4506 -0.6752,-2.8671 -1.1475,-4.243 z"
       fill="#000000"
       id="path25" />
    <path
       d="m 89.9311,42.7918 -23.0972,1.1347 c 0.0175,0.3568 0.0263,0.7144 0.0263,1.0725 0,2.8703 -0.5654,5.7125 -1.6638,8.3644 -1.0984,2.6518 -2.7084,5.0613 -4.738,7.0909 -2.0297,2.0297 -4.4392,3.6396 -7.091,4.7381 -2.6518,1.0984 -5.4941,1.6637 -8.3644,1.6637 -2.8703,0 -5.7125,-0.5653 -8.3643,-1.6637 -2.6519,-1.0985 -5.0614,-2.7084 -7.091,-4.7381 -2.0296,-2.0296 -3.6396,-4.4391 -4.738,-7.0909 -0.4346,-1.0491 -0.7857,-2.1279 -1.0513,-3.2265 2.4706,15.9622 16.2711,28.1813 32.9254,28.1813 18.4017,0 33.3192,-14.9175 33.3192,-33.3192 0,-0.7416 -0.0242,-1.4776 -0.0719,-2.2072 z"
       fill="#000000"
       id="path26" />
    <path
       d="m 23.7583,39.8615 c 0.014,-0.0579 0.0282,-0.1156 0.0427,-0.1734 l -0.0148,-0.0037 c -0.0095,0.059 -0.0188,0.118 -0.0279,0.1771 z"
       fill="#000000"
       id="path27" />
    <path
       d="m 24.1993,37.5553 0.2243,0.0802 c 0.1204,-0.3363 0.2491,-0.6701 0.3861,-1.0009 0.137,-0.3308 0.282,-0.6578 0.4348,-0.9808 L 24.7606,35.425 c -0.2098,0.7007 -0.3972,1.411 -0.5613,2.1303 z"
       fill="#000000"
       id="path28" />
    <path
       d="m 25.4779,33.296 0.7777,0.4662 c 0.3678,-0.6137 0.7655,-1.2089 1.1917,-1.7835 L 26.36,31.1723 c -0.3176,0.6954 -0.6119,1.4037 -0.8821,2.1237 z"
       fill="#000000"
       id="path29" />
    <path
       d="m 27.4172,29.06 1.3908,1.2606 c 0.2399,-0.2647 0.4866,-0.5238 0.7397,-0.777 0.2532,-0.2531 0.5123,-0.4998 0.777,-0.7397 l -1.6642,-1.8362 c -0.439,0.6808 -0.8538,1.3787 -1.2433,2.0923 z"
       fill="#000000"
       id="path30" />
    <path
       d="m 30.1018,24.907 1.881,2.5362 c 0.5746,-0.4262 1.1698,-0.8239 1.7835,-1.1917 l -2.0129,-3.3583 c -0.576,0.6491 -1.127,1.3209 -1.6516,2.0138 z"
       fill="#000000"
       id="path31" />
    <path
       d="m 33.6269,20.946 2.031,4.2944 c 0.323,-0.1528 0.65,-0.2978 0.9808,-0.4348 0.3308,-0.137 0.6646,-0.2657 1.0009,-0.3861 l -1.907,-5.3297 c -0.7279,0.5893 -1.4304,1.2087 -2.1057,1.8562 z"
       fill="#000000"
       id="path32" />
    <path
       d="m 38.0784,17.3542 1.6138,6.4427 c 0.694,-0.1739 1.3961,-0.3135 2.1038,-0.4185 l -1.128,-7.604 c -0.8886,0.488 -1.7526,1.0154 -2.5896,1.5798 z"
       fill="#000000"
       id="path33" />
  </g>
  <defs
     id="defs83">
    <linearGradient
       id="paint1_linear_1123_1429"
       x1="-13.05"
       y1="-10.35"
       x2="84.824997"
       y2="90"
       gradientUnits="userSpaceOnUse">
      <stop
         offset="0.0363151"
         stop-color="#3F156A"
         id="stop36" />
      <stop
         offset="0.524591"
         stop-color="#DA3762"
         id="stop37" />
      <stop
         offset="1"
         stop-color="#FCBA7D"
         id="stop38" />
    </linearGradient>
    <linearGradient
       id="paint2_linear_1123_1429"
       x1="-13.05"
       y1="-10.35"
       x2="84.824997"
       y2="90"
       gradientUnits="userSpaceOnUse">
      <stop
         offset="0.0363151"
         stop-color="#3F156A"
         id="stop39" />
      <stop
         offset="0.524591"
         stop-color="#DA3762"
         id="stop40" />
      <stop
         offset="1"
         stop-color="#FCBA7D"
         id="stop41" />
    </linearGradient>
    <linearGradient
       id="paint3_linear_1123_1429"
       x1="-13.05"
       y1="-10.35"
       x2="84.824997"
       y2="90"
       gradientUnits="userSpaceOnUse">
      <stop
         offset="0.0363151"
         stop-color="#3F156A"
         id="stop42" />
      <stop
         offset="0.524591"
         stop-color="#DA3762"
         id="stop43" />
      <stop
         offset="1"
         stop-color="#FCBA7D"
         id="stop44" />
    </linearGradient>
    <linearGradient
       id="paint4_linear_1123_1429"
       x1="-13.05"
       y1="-10.35"
       x2="84.824997"
       y2="90"
       gradientUnits="userSpaceOnUse">
      <stop
         offset="0.0363151"
         stop-color="#3F156A"
         id="stop45" />
      <stop
         offset="0.524591"
         stop-color="#DA3762"
         id="stop46" />
      <stop
         offset="1"
         stop-color="#FCBA7D"
         id="stop47" />
    </linearGradient>
    <linearGradient
       id="paint5_linear_1123_1429"
       x1="-13.05"
       y1="-10.35"
       x2="84.824997"
       y2="90"
       gradientUnits="userSpaceOnUse">
      <stop
         offset="0.0363151"
         stop-color="#3F156A"
         id="stop48" />
      <stop
         offset="0.524591"
         stop-color="#DA3762"
         id="stop49" />
      <stop
         offset="1"
         stop-color="#FCBA7D"
         id="stop50" />
    </linearGradient>
    <linearGradient
       id="paint6_linear_1123_1429"
       x1="-13.05"
       y1="-10.35"
       x2="84.824997"
       y2="90"
       gradientUnits="userSpaceOnUse">
      <stop
         offset="0.0363151"
         stop-color="#3F156A"
         id="stop51" />
      <stop
         offset="0.524591"
         stop-color="#DA3762"
         id="stop52" />
      <stop
         offset="1"
         stop-color="#FCBA7D"
         id="stop53" />
    </linearGradient>
    <linearGradient
       id="paint7_linear_1123_1429"
       x1="-13.05"
       y1="-10.35"
       x2="84.824997"
       y2="90"
       gradientUnits="userSpaceOnUse">
      <stop
         offset="0.0363151"
         stop-color="#3F156A"
         id="stop54" />
      <stop
         offset="0.524591"
         stop-color="#DA3762"
         id="stop55" />
      <stop
         offset="1"
         stop-color="#FCBA7D"
         id="stop56" />
    </linearGradient>
    <linearGradient
       id="paint8_linear_1123_1429"
       x1="-13.05"
       y1="-10.35"
       x2="84.824997"
       y2="90"
       gradientUnits="userSpaceOnUse">
      <stop
         offset="0.0363151"
         stop-color="#3F156A"
         id="stop57" />
      <stop
         offset="0.524591"
         stop-color="#DA3762"
         id="stop58" />
      <stop
         offset="1"
         stop-color="#FCBA7D"
         id="stop59" />
    </linearGradient>
    <linearGradient
       id="paint9_linear_1123_1429"
       x1="-13.05"
       y1="-10.35"
       x2="84.824997"
       y2="90"
       gradientUnits="userSpaceOnUse">
      <stop
         offset="0.0363151"
         stop-color="#3F156A"
         id="stop60" />
      <stop
         offset="0.524591"
         stop-color="#DA3762"
         id="stop61" />
      <stop
         offset="1"
         stop-color="#FCBA7D"
         id="stop62" />
    </linearGradient>
    <linearGradient
       id="paint10_linear_1123_1429"
       x1="-13.05"
       y1="-10.35"
       x2="84.824997"
       y2="90"
       gradientUnits="userSpaceOnUse">
      <stop
         offset="0.0363151"
         stop-color="#3F156A"
         id="stop63" />
      <stop
         offset="0.524591"
         stop-color="#DA3762"
         id="stop64" />
      <stop
         offset="1"
         stop-color="#FCBA7D"
         id="stop65" />
    </linearGradient>
    <linearGradient
       id="paint11_linear_1123_1429"
       x1="-13.05"
       y1="-10.35"
       x2="84.824997"
       y2="90"
       gradientUnits="userSpaceOnUse">
      <stop
         offset="0.0363151"
         stop-color="#3F156A"
         id="stop66" />
      <stop
         offset="0.524591"
         stop-color="#DA3762"
         id="stop67" />
      <stop
         offset="1"
         stop-color="#FCBA7D"
         id="stop68" />
    </linearGradient>
    <linearGradient
       id="paint12_linear_1123_1429"
       x1="-13.05"
       y1="-10.35"
       x2="84.824997"
       y2="90"
       gradientUnits="userSpaceOnUse">
      <stop
         offset="0.0363151"
         stop-color="#3F156A"
         id="stop69" />
      <stop
         offset="0.524591"
         stop-color="#DA3762"
         id="stop70" />
      <stop
         offset="1"
         stop-color="#FCBA7D"
         id="stop71" />
    </linearGradient>
    <linearGradient
       id="paint13_linear_1123_1429"
       x1="-13.05"
       y1="-10.35"
       x2="84.824997"
       y2="90"
       gradientUnits="userSpaceOnUse">
      <stop
         offset="0.0363151"
         stop-color="#3F156A"
         id="stop72" />
      <stop
         offset="0.524591"
         stop-color="#DA3762"
         id="stop73" />
      <stop
         offset="1"
         stop-color="#FCBA7D"
         id="stop74" />
    </linearGradient>
    <linearGradient
       id="paint14_linear_1123_1429"
       x1="-13.05"
       y1="-10.35"
       x2="84.824997"
       y2="90"
       gradientUnits="userSpaceOnUse">
      <stop
         offset="0.0363151"
         stop-color="#3F156A"
         id="stop75" />
      <stop
         offset="0.524591"
         stop-color="#DA3762"
         id="stop76" />
      <stop
         offset="1"
         stop-color="#FCBA7D"
         id="stop77" />
    </linearGradient>
    <linearGradient
       id="paint15_linear_1123_1429"
       x1="-13.05"
       y1="-10.35"
       x2="84.824997"
       y2="90"
       gradientUnits="userSpaceOnUse">
      <stop
         offset="0.0363151"
         stop-color="#3F156A"
         id="stop78" />
      <stop
         offset="0.524591"
         stop-color="#DA3762"
         id="stop79" />
      <stop
         offset="1"
         stop-color="#FCBA7D"
         id="stop80" />
    </linearGradient>
    <linearGradient
       id="paint16_linear_1123_1429"
       x1="-13.05"
       y1="-10.35"
       x2="84.824997"
       y2="90"
       gradientUnits="userSpaceOnUse">
      <stop
         offset="0.0363151"
         stop-color="#3F156A"
         id="stop81" />
      <stop
         offset="0.524591"
         stop-color="#DA3762"
         id="stop82" />
      <stop
         offset="1"
         stop-color="#FCBA7D"
         id="stop83" />
    </linearGradient>
  </defs>
</svg>
